<svg style="display:none">
    <symbol id="wellcome" viewBox="0 0 64 64">
        <path d="M49.1517 6.01544C48.4395 4.76914 47.1141 4 45.6787 4H18.3213C16.8859 4 15.5605 4.76914 14.8483 6.01544L1.13403 30.0154C0.43133 31.2452 0.431331 32.7548 1.13404 33.9846L14.8484 57.9845C15.5605 59.2308 16.8859 60 18.3213 60L45.6787 59.9999C47.1141 59.9999 48.4395 59.2308 49.1517 57.9845L62.866 33.9846C63.5687 32.7548 63.5687 31.2452 62.866 30.0154L49.1517 6.01544Z" fill="#E6E6E6"/>
        <path d="M19.5 10H28.5L17.1227 30.024C16.4265 31.2493 16.4265 32.7507 17.1227 33.976L28.5 54H19.5L8.12275 33.976C7.42652 32.7507 7.42652 31.2493 8.12275 30.024L19.5 10Z" fill="#FFFEFF"/>
        <path d="M43.5 24.5L48 16.5L55.8337 29.9915C56.5549 31.2334 56.5549 32.7666 55.8337 34.0085L48 47.5L43.5 40L46.8604 34.0259C47.565 32.7734 47.5435 31.2391 46.8041 30.0069L43.5 24.5Z" fill="white"/>
    </symbol>
    <symbol id="warning" viewBox="0 0 64 64">
        <path d="M49.1517 6.01544C48.4395 4.76914 47.1141 4 45.6787 4H18.3213C16.8859 4 15.5605 4.76914 14.8483 6.01544L1.13403 30.0154C0.43133 31.2452 0.431331 32.7548 1.13404 33.9846L14.8484 57.9845C15.5605 59.2308 16.8859 60 18.3213 60L45.6787 59.9999C47.1141 59.9999 48.4395 59.2308 49.1517 57.9845L62.866 33.9846C63.5687 32.7548 63.5687 31.2452 62.866 30.0154L49.1517 6.01544Z" fill="#E6E6E6"/>
        <path d="M43 43L21 21" stroke="white" stroke-width="8"/>
        <path d="M21 43L43 21" stroke="white" stroke-width="8"/>
    </symbol>
</svg>