<svg width="128" height="128" viewBox="0 0 128 128" fill="none" xmlns="http://www.w3.org/2000/svg">
<path d="M98.3084 13.004C96.8799 10.5265 94.2377 9 91.3779 9.00001L36.6219 9.00008C33.7621 9.00008 31.1198 10.5266 29.6914 13.0041L2.30394 60.504C0.877965 62.9772 0.877965 66.0228 2.30394 68.496L29.6914 115.996C31.1199 118.473 33.7621 120 36.6219 120L91.378 120C94.2378 120 96.88 118.473 98.3085 115.996L125.696 68.4961C127.122 66.0229 127.122 62.9773 125.696 60.5041L98.3084 13.004Z" fill="#0178D4"/>
<path d="M65.7316 67.503C64.6603 65.6449 62.6786 64.5 60.5337 64.5H10.3854C5.76811 64.5 2.88117 69.497 5.18748 73.497L29.1143 114.995C30.8999 118.092 34.2027 120 37.7774 120L82.153 120C88.3093 120 92.1586 113.337 89.0835 108.004L65.7316 67.503Z" fill="url(#paint0_linear_3:19)"/>
<path d="M39 21H57L34.291 60.5137C32.8724 62.982 32.8724 66.018 34.291 68.4863L57 108H39L16.291 68.4863C14.8724 66.018 14.8724 62.982 16.291 60.5137L39 21Z" fill="#FFFEFF"/>
<path d="M87 48.5L96 33L111.667 59.9829C113.11 62.4668 113.11 65.5332 111.667 68.0171L96 95L87 79.5L93.6675 68.0171C95.1098 65.5332 95.1098 62.4668 93.6675 59.9829L87 48.5Z" fill="white"/>
<defs>
<linearGradient id="paint0_linear_3:19" x1="64.5" y1="65.5" x2="32" y2="120" gradientUnits="userSpaceOnUse">
<stop stop-color="#259FFE" stop-opacity="0.8"/>
<stop offset="0.583333" stop-color="#0178D4"/>
</linearGradient>
</defs>
</svg>
